<svg width="32" height="23" viewBox="0 0 32 23" fill="none" xmlns="http://www.w3.org/2000/svg">
<path d="M31.1304 7.89211C30.9001 7.60279 30.5511 7.43436 30.1818 7.43436H8.9579L7.8561 1.86594C7.75953 1.37826 7.37491 0.998883 6.8856 0.909196L2.03718 0.0203247C1.37743 -0.1013 0.747124 0.335511 0.626312 0.994071C0.5055 1.65263 0.941436 2.28413 1.60006 2.40494L5.63798 3.14512L9.19509 21.1242C9.3074 21.6919 9.80559 22.1012 10.3841 22.1012H27.3536C27.918 22.1012 28.4073 21.7121 28.5346 21.1614L31.3628 8.91916C31.446 8.55917 31.3604 8.18098 31.1304 7.89211ZM26.3895 19.677H11.3796L9.43746 9.85897H28.6573L26.3895 19.677Z" fill="white"/>
</svg>
